<svg width="150" height="62" viewBox="0 0 150 62" fill="none" xmlns="http://www.w3.org/2000/svg">
<rect width="150" height="62" fill="white"/>
<path d="M26.7302 13.455C24.8823 14.902 21.9201 16.9509 21.6161 19.5275C21.146 23.5116 31.7087 17.0279 32.2864 16.6584C38.7937 12.4965 45.0343 7.64614 50.2648 1.93691C51.1285 0.994191 51.2897 0.55621 50.1013 1.6192C47.5813 3.87337 45.4101 6.49952 43.2802 9.11222C33.7774 20.769 24.8555 32.8914 15.5691 44.7183C12.0387 49.2146 8.43474 53.6586 4.57379 57.8777C3.56854 58.9762 1.29185 62.0813 1.04251 60.613C0.700434 58.5986 2.5163 54.9954 3.14191 53.3039C4.7107 49.0625 6.40771 44.8224 8.74497 40.9354C12.7889 34.2101 17.9705 31.077 25.2991 28.9129C32.1401 26.8928 38.8311 24.4885 45.2244 21.2933C52.5576 17.6285 58.4136 12.7054 64.3105 7.10926C66.0485 5.45983 71.2668 0.549264 69.3395 1.97271C65.0373 5.15009 60.9319 8.89147 57.2464 12.7505C50.2889 20.0354 44.6727 28.4955 39.0594 36.8213C36.7341 40.2704 31.0211 46.9056 34.0282 51.5319C39.7686 60.3635 59.5066 36.795 62.6584 33.3345C62.9106 33.0576 68.8132 27.2585 68.1948 26.5651C67.5036 25.7902 61.8389 31.5185 61.4656 31.916C59.606 33.8958 55.0913 38.7684 56.8093 41.9328C58.322 44.7187 65.1788 39.7903 66.5317 38.8581C69.2732 36.9692 72.0235 34.5831 73.6299 31.6042C73.874 31.1514 71.374 34.5848 71.0325 35.111C69.6972 37.1681 66.6986 40.5643 66.5775 43.1405C66.518 44.4062 72.0554 39.8415 72.3493 39.5857C74.6987 37.5418 77.2721 34.4364 80.0665 33.0086C81.8995 32.0719 77.5816 36.3004 76.1845 37.8125C75.9359 38.0816 72.3123 42.1079 73.7286 41.7115C76.5279 40.9282 79.21 38.388 81.3834 36.5633C86.2698 32.4608 80.5888 40.1991 83.4113 41.6233C86.8719 43.3694 99.3149 35.5887 98.1517 31.3574C97.6208 29.426 87.7937 39.0334 87.1942 40.6791C86.1834 43.4539 92.0094 40.3467 92.5327 40.0118C93.9204 39.1239 96.9629 35.3465 96.3546 36.878C95.9713 37.8432 94.9799 39.1389 95.2792 40.244C95.7357 41.9294 99.7824 38.8502 100.216 38.5217C101.639 37.4436 102.958 36.2323 104.233 34.9852C104.498 34.7262 105.592 33.3032 106.099 33.1629C106.658 33.0083 105.571 34.1998 105.242 34.6772C104.525 35.7161 103.733 36.6922 102.931 37.6661C102.57 38.1047 100.427 40.1608 100.694 40.864C101.047 41.7929 105.503 38.8059 105.841 38.5503C107.339 37.4145 108.824 34.7104 110.485 33.9838C110.815 33.8395 110.613 37.0627 110.611 37.3687C110.578 42.2183 119.417 32.4397 120.181 31.5828C120.768 30.9245 123.473 28.1373 121.629 30.7443C119.781 33.3556 117.699 35.8704 115.473 38.1653C114.489 39.1797 112.452 41.7931 110.846 41.8823C109.861 41.937 110.446 39.3247 110.693 38.9265C111.72 37.2715 115.134 37.3799 116.739 37.0381C121.818 35.9572 125.775 33.3103 129.119 29.34C132.658 25.1375 135.45 19.8179 136.457 14.3738C136.699 13.0693 135.896 14.2081 135.627 14.5824C134.265 16.4761 133.124 18.5347 131.941 20.5406C128.921 25.6601 124.913 30.9244 123.203 36.6831C122.34 39.5899 125.372 35.9163 125.822 35.4406C126.671 34.5423 130.797 29.7179 132.423 30.9922C133.996 32.2257 131.165 37.1727 130.805 38.5978C130.098 41.3999 134.286 37.691 134.72 37.2559C135.06 36.9139 139.132 32.2728 139.251 32.5897C139.834 34.1466 137.744 36.2507 138.452 37.7118C138.832 38.4946 143.131 35.6677 143.714 35.4327C145.666 34.6444 144.991 36.3212 145.32 37.4776C145.722 38.8873 148.528 36.45 149 36.1243" stroke="#1E1E1E" stroke-width="2" stroke-linecap="round" stroke-linejoin="round"/>
</svg>
